# xmcd
#
# Track frame offsets: 
#        150
#        12520
#        25195
#        37395
#        47902
#        61587
#        73265
#        88062
#        98620
#        111830
#        125492
#        137665
#        150997
#        164125
#        177477
#        191532
#        204825
#        217227
#        229007
#        242205
#        256347
#        268115
#        280755
#        294612
#        307775
#        320095
#        332580
#
# Disc length: 4603 seconds
#
# Revision: 1
# Processed by: cddbd v1.5.2PL0 Copyright (c) Steve Scherf et al.
# Submitted via: ExactAudioCopyFreeDBPlugin 1.0
#
DISCID=9611f91b
DTITLE=Various Artist - A Shot in the Dark:  Nashville Jumps - Blues 
DTITLE=and Rhythm on Nashville Independent Labels, 1945-1955
DYEAR=2000
DGENRE=Rhythm and Blues
TTITLE0=Sherman Johnson - Back Alley Boogie
TTITLE1=Sherman Johnson - Nashville After Midnight
TTITLE2=The Fat Man with Sunnyland Slim - You've Gotta Stop This Mess
TTITLE3=The Fat Man with Sunnyland Slim - Glad I Don't Worry No More
TTITLE4=Jack Cooley - It's So Fine
TTITLE5=Jack Cooley - Tom Tom Boogie
TTITLE6=Jack Cooley - Hear My Story
TTITLE7=Jack Cooley - Dyna-Flow
TTITLE8=The Charlie Dowell Orchestra with Willie Lee Patton - Allotmen
TTITLE8=t Blues (Dear John)
TTITLE9=Del Thorne - I Let Him Move Me
TTITLE10=Little Maxie Bailey - Brown Skin Woman Blues
TTITLE11=Shy Guy Douglas - Detroit Arrow
TTITLE12=Shy Guy Douglas - New Memphis Blues
TTITLE13=Kid King's Combo - Skip's Boogie
TTITLE14=Kid King's Combo - Banana Split
TTITLE15=Good Rocking Beasley - Happy Go Lucky
TTITLE16=The Leap Frogs - Things Gonna Change
TTITLE17=Little Maxie Bailey - My Baby's Blues
TTITLE18=Del Thorne - Fly Chick Blues
TTITLE19=Kid King's Combo - Gimmick
TTITLE20=Bernie Hardison - Love Me Baby
TTITLE21=Bernie Hardison - Yeah It's True
TTITLE22=Roosevelt Lee - I'm So Sad
TTITLE23=The Dixie Doodlers - She Was All That I Had
TTITLE24=The Dixie Doodlers - Best of Friends
TTITLE25=Shy Guy Douglas - I'm Your Country Man
TTITLE26=Shy Guy Douglas - Wasted Time
EXTD=
EXTT0=
EXTT1=
EXTT2=
EXTT3=
EXTT4=
EXTT5=
EXTT6=
EXTT7=
EXTT8=
EXTT9=
EXTT10=
EXTT11=
EXTT12=
EXTT13=
EXTT14=
EXTT15=
EXTT16=
EXTT17=
EXTT18=
EXTT19=
EXTT20=
EXTT21=
EXTT22=
EXTT23=
EXTT24=
EXTT25=
EXTT26=
PLAYORDER=
